<mxfile host="app.diagrams.net" modified="2024-06-09T10:30:00.124Z" agent="Mozilla/5.0 (Windows NT 10.0; Win64; x64) AppleWebKit/537.36 (KHTML, like Gecko) Chrome/125.0.0.0 Safari/537.36" etag="EZbc84ewiIM_Z5HuEs2B" version="24.5.2" type="device">
  <diagram name="Page-1" id="nG4IKkUQEYtrS_NMxXBj">
    <mxGraphModel dx="1050" dy="522" grid="1" gridSize="10" guides="1" tooltips="1" connect="1" arrows="1" fold="1" page="1" pageScale="1" pageWidth="827" pageHeight="1169" math="0" shadow="0">
      <root>
        <mxCell id="0" />
        <mxCell id="1" parent="0" />
        <mxCell id="UJzKX5Wr3GbaUAHQcJK2-1" value="" style="rounded=1;whiteSpace=wrap;html=1;strokeWidth=3;" parent="1" vertex="1">
          <mxGeometry x="120" y="120" width="120" height="80" as="geometry" />
        </mxCell>
        <mxCell id="UJzKX5Wr3GbaUAHQcJK2-2" value="" style="rounded=1;whiteSpace=wrap;html=1;strokeWidth=3;" parent="1" vertex="1">
          <mxGeometry x="350" y="120" width="120" height="80" as="geometry" />
        </mxCell>
        <mxCell id="UJzKX5Wr3GbaUAHQcJK2-3" value="" style="rounded=1;whiteSpace=wrap;html=1;strokeWidth=3;" parent="1" vertex="1">
          <mxGeometry x="560" y="120" width="120" height="80" as="geometry" />
        </mxCell>
        <mxCell id="UJzKX5Wr3GbaUAHQcJK2-4" value="" style="rounded=1;whiteSpace=wrap;html=1;strokeWidth=3;" parent="1" vertex="1">
          <mxGeometry x="750" y="120" width="120" height="80" as="geometry" />
        </mxCell>
        <mxCell id="UJzKX5Wr3GbaUAHQcJK2-5" style="edgeStyle=orthogonalEdgeStyle;rounded=0;orthogonalLoop=1;jettySize=auto;html=1;exitX=0.5;exitY=1;exitDx=0;exitDy=0;strokeWidth=3;" parent="1" source="UJzKX5Wr3GbaUAHQcJK2-4" target="UJzKX5Wr3GbaUAHQcJK2-4" edge="1">
          <mxGeometry relative="1" as="geometry" />
        </mxCell>
        <mxCell id="UJzKX5Wr3GbaUAHQcJK2-7" value="&lt;font style=&quot;font-size: 17px;&quot;&gt;Turbo Decoding&lt;/font&gt;" style="rounded=1;whiteSpace=wrap;html=1;strokeWidth=3;" parent="1" vertex="1">
          <mxGeometry x="320" y="440" width="130" height="80" as="geometry" />
        </mxCell>
        <mxCell id="UJzKX5Wr3GbaUAHQcJK2-8" value="&lt;font style=&quot;font-size: 17px;&quot;&gt;Inter leaving&lt;/font&gt;" style="rounded=1;whiteSpace=wrap;html=1;strokeWidth=3;" parent="1" vertex="1">
          <mxGeometry x="970" y="280" width="120" height="80" as="geometry" />
        </mxCell>
        <mxCell id="UJzKX5Wr3GbaUAHQcJK2-43" style="edgeStyle=orthogonalEdgeStyle;rounded=0;orthogonalLoop=1;jettySize=auto;html=1;exitX=0.75;exitY=0;exitDx=0;exitDy=0;entryX=1;entryY=0.25;entryDx=0;entryDy=0;strokeWidth=3;" parent="1" source="UJzKX5Wr3GbaUAHQcJK2-9" target="UJzKX5Wr3GbaUAHQcJK2-18" edge="1">
          <mxGeometry relative="1" as="geometry" />
        </mxCell>
        <mxCell id="MxQdHU-49TeZ0FBmogXy-13" style="edgeStyle=orthogonalEdgeStyle;rounded=0;orthogonalLoop=1;jettySize=auto;html=1;entryX=0.5;entryY=0;entryDx=0;entryDy=0;strokeWidth=3;" parent="1" edge="1">
          <mxGeometry relative="1" as="geometry">
            <mxPoint x="379.0000000000002" y="359.9999999999999" as="sourcePoint" />
            <mxPoint x="383.9999999999998" y="440" as="targetPoint" />
            <Array as="points">
              <mxPoint x="384" y="360" />
              <mxPoint x="384" y="400" />
              <mxPoint x="385" y="440" />
            </Array>
          </mxGeometry>
        </mxCell>
        <mxCell id="UJzKX5Wr3GbaUAHQcJK2-9" value="" style="rounded=1;whiteSpace=wrap;html=1;strokeWidth=3;" parent="1" vertex="1">
          <mxGeometry x="320" y="280" width="130" height="80" as="geometry" />
        </mxCell>
        <mxCell id="UJzKX5Wr3GbaUAHQcJK2-10" value="&lt;font style=&quot;font-size: 17px;&quot;&gt;Soft input, Soft output decoding&lt;/font&gt;" style="rounded=1;whiteSpace=wrap;html=1;strokeWidth=3;" parent="1" vertex="1">
          <mxGeometry x="550" y="440" width="130" height="80" as="geometry" />
        </mxCell>
        <mxCell id="UJzKX5Wr3GbaUAHQcJK2-11" value="&lt;font style=&quot;font-size: 20px;&quot;&gt;Start&lt;/font&gt;" style="text;html=1;align=center;verticalAlign=middle;whiteSpace=wrap;rounded=0;shadow=1;fontStyle=0;strokeWidth=3;" parent="1" vertex="1">
          <mxGeometry x="150" y="145" width="60" height="30" as="geometry" />
        </mxCell>
        <mxCell id="UJzKX5Wr3GbaUAHQcJK2-13" value="&lt;font style=&quot;font-size: 17px;&quot;&gt;segmentation of data packets&lt;/font&gt;" style="text;html=1;align=center;verticalAlign=middle;whiteSpace=wrap;rounded=0;fontStyle=0;strokeWidth=3;" parent="1" vertex="1">
          <mxGeometry x="384" y="135" width="60" height="45" as="geometry" />
        </mxCell>
        <mxCell id="UJzKX5Wr3GbaUAHQcJK2-16" value="&lt;font style=&quot;font-size: 17px;&quot;&gt;Turbo Encoding&lt;/font&gt;" style="text;html=1;align=center;verticalAlign=middle;whiteSpace=wrap;rounded=0;fontStyle=0;strokeWidth=3;" parent="1" vertex="1">
          <mxGeometry x="590" y="142.5" width="60" height="30" as="geometry" />
        </mxCell>
        <mxCell id="UJzKX5Wr3GbaUAHQcJK2-17" value="&lt;font style=&quot;font-size: 17px;&quot;&gt;Bit splitting&lt;/font&gt;" style="text;html=1;align=center;verticalAlign=middle;whiteSpace=wrap;rounded=0;fontStyle=0;strokeWidth=3;" parent="1" vertex="1">
          <mxGeometry x="780" y="145" width="60" height="30" as="geometry" />
        </mxCell>
        <mxCell id="UJzKX5Wr3GbaUAHQcJK2-18" value="&lt;font style=&quot;font-size: 17px;&quot;&gt;&lt;span style=&quot;font-size: 17px;&quot;&gt;Modulation &amp;amp; Transmission&lt;/span&gt;&lt;/font&gt;" style="text;html=1;align=center;verticalAlign=middle;whiteSpace=wrap;rounded=0;fontStyle=0;fontSize=17;strokeWidth=3;" parent="1" vertex="1">
          <mxGeometry x="360" y="305" width="60" height="30" as="geometry" />
        </mxCell>
        <mxCell id="UJzKX5Wr3GbaUAHQcJK2-22" value="&lt;font style=&quot;font-size: 17px;&quot;&gt;Constituent encoding 2&lt;/font&gt;" style="rounded=1;whiteSpace=wrap;html=1;strokeWidth=3;" parent="1" vertex="1">
          <mxGeometry x="760" y="280" width="120" height="80" as="geometry" />
        </mxCell>
        <mxCell id="UJzKX5Wr3GbaUAHQcJK2-23" value="&lt;font style=&quot;font-size: 17px;&quot;&gt;Rate matching&lt;/font&gt;" style="rounded=1;whiteSpace=wrap;html=1;strokeWidth=3;" parent="1" vertex="1">
          <mxGeometry x="550" y="280" width="120" height="80" as="geometry" />
        </mxCell>
        <mxCell id="UJzKX5Wr3GbaUAHQcJK2-26" value="&lt;font style=&quot;font-size: 17px;&quot;&gt;Constituent encoding 1&lt;/font&gt;" style="rounded=1;whiteSpace=wrap;html=1;strokeWidth=3;" parent="1" vertex="1">
          <mxGeometry x="970" y="120" width="120" height="80" as="geometry" />
        </mxCell>
        <mxCell id="UJzKX5Wr3GbaUAHQcJK2-29" value="&lt;font style=&quot;font-size: 17px;&quot;&gt;Deinterleaver&lt;/font&gt;" style="rounded=1;whiteSpace=wrap;html=1;strokeWidth=3;" parent="1" vertex="1">
          <mxGeometry x="770" y="440" width="120" height="80" as="geometry" />
        </mxCell>
        <mxCell id="UJzKX5Wr3GbaUAHQcJK2-30" value="&lt;div&gt;&lt;font style=&quot;font-size: 17px;&quot;&gt;&lt;br&gt;&lt;/font&gt;&lt;/div&gt;&lt;font style=&quot;font-size: 17px;&quot;&gt;error&lt;br&gt;detected via &lt;br&gt;CRC?&lt;br&gt;&lt;br&gt;&lt;/font&gt;" style="rhombus;whiteSpace=wrap;html=1;fontStyle=0;strokeWidth=3;" parent="1" vertex="1">
          <mxGeometry x="740" y="590" width="180" height="100" as="geometry" />
        </mxCell>
        <mxCell id="UJzKX5Wr3GbaUAHQcJK2-31" value="&lt;font style=&quot;font-size: 17px;&quot;&gt;ACK sent&lt;/font&gt;" style="rounded=1;whiteSpace=wrap;html=1;strokeWidth=3;" parent="1" vertex="1">
          <mxGeometry x="510" y="597.5" width="120" height="85" as="geometry" />
        </mxCell>
        <mxCell id="UJzKX5Wr3GbaUAHQcJK2-32" value="&lt;font style=&quot;font-size: 17px;&quot;&gt;NACK sent to transmitter&lt;/font&gt;" style="rounded=1;whiteSpace=wrap;html=1;strokeWidth=3;" parent="1" vertex="1">
          <mxGeometry x="1020" y="600" width="140" height="80" as="geometry" />
        </mxCell>
        <mxCell id="UJzKX5Wr3GbaUAHQcJK2-33" value="" style="endArrow=classic;html=1;rounded=0;exitX=0;exitY=0.5;exitDx=0;exitDy=0;entryX=1;entryY=0.5;entryDx=0;entryDy=0;strokeWidth=3;" parent="1" source="UJzKX5Wr3GbaUAHQcJK2-30" target="UJzKX5Wr3GbaUAHQcJK2-31" edge="1">
          <mxGeometry width="50" height="50" relative="1" as="geometry">
            <mxPoint x="490" y="710" as="sourcePoint" />
            <mxPoint x="540" y="660" as="targetPoint" />
          </mxGeometry>
        </mxCell>
        <mxCell id="UJzKX5Wr3GbaUAHQcJK2-34" value="&lt;font style=&quot;font-size: 22px;&quot;&gt;No&lt;/font&gt;" style="text;html=1;align=center;verticalAlign=middle;whiteSpace=wrap;rounded=0;strokeWidth=3;" parent="1" vertex="1">
          <mxGeometry x="660" y="607.5" width="60" height="30" as="geometry" />
        </mxCell>
        <mxCell id="UJzKX5Wr3GbaUAHQcJK2-35" value="" style="endArrow=classic;html=1;rounded=0;exitX=1;exitY=0.5;exitDx=0;exitDy=0;entryX=0;entryY=0.5;entryDx=0;entryDy=0;strokeWidth=3;" parent="1" source="UJzKX5Wr3GbaUAHQcJK2-30" target="UJzKX5Wr3GbaUAHQcJK2-32" edge="1">
          <mxGeometry width="50" height="50" relative="1" as="geometry">
            <mxPoint x="940" y="790" as="sourcePoint" />
            <mxPoint x="990" y="740" as="targetPoint" />
          </mxGeometry>
        </mxCell>
        <mxCell id="UJzKX5Wr3GbaUAHQcJK2-36" value="&lt;font style=&quot;font-size: 22px;&quot;&gt;Yes&lt;/font&gt;" style="text;html=1;align=center;verticalAlign=middle;whiteSpace=wrap;rounded=0;strokeWidth=3;" parent="1" vertex="1">
          <mxGeometry x="930" y="607.5" width="60" height="30" as="geometry" />
        </mxCell>
        <mxCell id="UJzKX5Wr3GbaUAHQcJK2-37" value="" style="endArrow=classic;html=1;rounded=0;entryX=0.5;entryY=0;entryDx=0;entryDy=0;exitX=0.5;exitY=1;exitDx=0;exitDy=0;strokeWidth=3;" parent="1" source="UJzKX5Wr3GbaUAHQcJK2-29" target="UJzKX5Wr3GbaUAHQcJK2-30" edge="1">
          <mxGeometry width="50" height="50" relative="1" as="geometry">
            <mxPoint x="1080" y="510" as="sourcePoint" />
            <mxPoint x="1130" y="460" as="targetPoint" />
          </mxGeometry>
        </mxCell>
        <mxCell id="UJzKX5Wr3GbaUAHQcJK2-40" value="" style="endArrow=classic;html=1;rounded=0;exitX=1;exitY=0.5;exitDx=0;exitDy=0;entryX=0;entryY=0.5;entryDx=0;entryDy=0;strokeWidth=3;" parent="1" source="UJzKX5Wr3GbaUAHQcJK2-10" target="UJzKX5Wr3GbaUAHQcJK2-29" edge="1">
          <mxGeometry width="50" height="50" relative="1" as="geometry">
            <mxPoint x="730" y="750" as="sourcePoint" />
            <mxPoint x="780" y="700" as="targetPoint" />
          </mxGeometry>
        </mxCell>
        <mxCell id="UJzKX5Wr3GbaUAHQcJK2-41" value="" style="endArrow=classic;html=1;rounded=0;entryX=0;entryY=0.5;entryDx=0;entryDy=0;exitX=1;exitY=0.5;exitDx=0;exitDy=0;strokeWidth=3;" parent="1" source="UJzKX5Wr3GbaUAHQcJK2-7" target="UJzKX5Wr3GbaUAHQcJK2-10" edge="1">
          <mxGeometry width="50" height="50" relative="1" as="geometry">
            <mxPoint x="240" y="650" as="sourcePoint" />
            <mxPoint x="290" y="600" as="targetPoint" />
          </mxGeometry>
        </mxCell>
        <mxCell id="UJzKX5Wr3GbaUAHQcJK2-45" value="" style="endArrow=classic;html=1;rounded=0;entryX=1;entryY=0.5;entryDx=0;entryDy=0;strokeWidth=3;" parent="1" target="UJzKX5Wr3GbaUAHQcJK2-9" edge="1">
          <mxGeometry width="50" height="50" relative="1" as="geometry">
            <mxPoint x="550" y="320" as="sourcePoint" />
            <mxPoint x="350" y="600" as="targetPoint" />
          </mxGeometry>
        </mxCell>
        <mxCell id="UJzKX5Wr3GbaUAHQcJK2-46" value="" style="endArrow=classic;html=1;rounded=0;exitX=0;exitY=0.5;exitDx=0;exitDy=0;entryX=1;entryY=0.5;entryDx=0;entryDy=0;strokeWidth=3;" parent="1" source="UJzKX5Wr3GbaUAHQcJK2-22" target="UJzKX5Wr3GbaUAHQcJK2-23" edge="1">
          <mxGeometry width="50" height="50" relative="1" as="geometry">
            <mxPoint x="220" y="670" as="sourcePoint" />
            <mxPoint x="270" y="620" as="targetPoint" />
          </mxGeometry>
        </mxCell>
        <mxCell id="UJzKX5Wr3GbaUAHQcJK2-47" value="" style="endArrow=classic;html=1;rounded=0;exitX=0;exitY=0.5;exitDx=0;exitDy=0;entryX=1;entryY=0.5;entryDx=0;entryDy=0;strokeWidth=3;" parent="1" source="UJzKX5Wr3GbaUAHQcJK2-8" target="UJzKX5Wr3GbaUAHQcJK2-22" edge="1">
          <mxGeometry width="50" height="50" relative="1" as="geometry">
            <mxPoint x="720" y="720" as="sourcePoint" />
            <mxPoint x="770" y="670" as="targetPoint" />
          </mxGeometry>
        </mxCell>
        <mxCell id="UJzKX5Wr3GbaUAHQcJK2-48" value="" style="endArrow=classic;html=1;rounded=0;exitX=0.5;exitY=1;exitDx=0;exitDy=0;entryX=0.5;entryY=0;entryDx=0;entryDy=0;strokeWidth=3;" parent="1" source="UJzKX5Wr3GbaUAHQcJK2-26" target="UJzKX5Wr3GbaUAHQcJK2-8" edge="1">
          <mxGeometry width="50" height="50" relative="1" as="geometry">
            <mxPoint x="1060" y="440" as="sourcePoint" />
            <mxPoint x="1110" y="390" as="targetPoint" />
          </mxGeometry>
        </mxCell>
        <mxCell id="UJzKX5Wr3GbaUAHQcJK2-49" value="" style="endArrow=classic;html=1;rounded=0;exitX=1;exitY=0.5;exitDx=0;exitDy=0;entryX=0;entryY=0.5;entryDx=0;entryDy=0;strokeWidth=3;" parent="1" source="UJzKX5Wr3GbaUAHQcJK2-4" target="UJzKX5Wr3GbaUAHQcJK2-26" edge="1">
          <mxGeometry width="50" height="50" relative="1" as="geometry">
            <mxPoint x="890" y="80" as="sourcePoint" />
            <mxPoint x="940" y="30" as="targetPoint" />
          </mxGeometry>
        </mxCell>
        <mxCell id="UJzKX5Wr3GbaUAHQcJK2-50" value="" style="endArrow=classic;html=1;rounded=0;exitX=1;exitY=0.5;exitDx=0;exitDy=0;entryX=0;entryY=0.5;entryDx=0;entryDy=0;strokeWidth=3;" parent="1" source="UJzKX5Wr3GbaUAHQcJK2-3" target="UJzKX5Wr3GbaUAHQcJK2-4" edge="1">
          <mxGeometry width="50" height="50" relative="1" as="geometry">
            <mxPoint x="660" y="710" as="sourcePoint" />
            <mxPoint x="710" y="660" as="targetPoint" />
          </mxGeometry>
        </mxCell>
        <mxCell id="UJzKX5Wr3GbaUAHQcJK2-51" value="" style="endArrow=classic;html=1;rounded=0;exitX=1;exitY=0.5;exitDx=0;exitDy=0;entryX=0;entryY=0.5;entryDx=0;entryDy=0;strokeWidth=3;" parent="1" source="UJzKX5Wr3GbaUAHQcJK2-2" target="UJzKX5Wr3GbaUAHQcJK2-3" edge="1">
          <mxGeometry width="50" height="50" relative="1" as="geometry">
            <mxPoint x="230" y="300" as="sourcePoint" />
            <mxPoint x="280" y="250" as="targetPoint" />
          </mxGeometry>
        </mxCell>
        <mxCell id="UJzKX5Wr3GbaUAHQcJK2-52" value="" style="endArrow=classic;html=1;rounded=0;exitX=1;exitY=0.5;exitDx=0;exitDy=0;entryX=0;entryY=0.5;entryDx=0;entryDy=0;strokeWidth=3;" parent="1" source="UJzKX5Wr3GbaUAHQcJK2-1" target="UJzKX5Wr3GbaUAHQcJK2-2" edge="1">
          <mxGeometry width="50" height="50" relative="1" as="geometry">
            <mxPoint x="160" y="370" as="sourcePoint" />
            <mxPoint x="210" y="320" as="targetPoint" />
          </mxGeometry>
        </mxCell>
        <mxCell id="MxQdHU-49TeZ0FBmogXy-15" style="edgeStyle=orthogonalEdgeStyle;rounded=0;orthogonalLoop=1;jettySize=auto;html=1;exitX=0.5;exitY=1;exitDx=0;exitDy=0;strokeWidth=3;" parent="1" source="UJzKX5Wr3GbaUAHQcJK2-29" target="UJzKX5Wr3GbaUAHQcJK2-29" edge="1">
          <mxGeometry relative="1" as="geometry" />
        </mxCell>
      </root>
    </mxGraphModel>
  </diagram>
</mxfile>
